<svg xmlns="http://www.w3.org/2000/svg" width="40" height="40" viewBox="0 0 40 40">
  <rect width="40" height="40" rx="9" fill="#14181f"/>
  <rect x="2" y="2" width="36" height="36" rx="7" fill="#f06419"/>
  <path d="M10 14 C10 11 13 9 16 9 L28 9 C30 9 31 10 31 12 C31 14 30 15 28 15 L18 15 C16 15 15 16 15 18 C15 20 16 21 18 21 L24 21 C27 21 30 23 30 26 C30 29 27 31 24 31 L12 31 C10 31 9 30 9 28 C9 26 10 25 12 25 L22 25 C24 25 25 24 25 22 C25 20 24 19 22 19 L16 19 C13 19 10 17 10 14Z" fill="white"/>
</svg>